<svg id="Layer_1" data-name="Layer 1" xmlns="http://www.w3.org/2000/svg" xmlns:xlink="http://www.w3.org/1999/xlink" viewBox="0 0 162.27 172.34"><defs><style>.cls-1{fill:#fff;}.cls-2{mask:url(#mask);}.cls-3{fill:#ea0f23;}.cls-4{fill:#fb610b;}.cls-5{fill:#ffc63e;}.cls-6{fill:#18c40e;}.cls-7{fill:#0742fe;}.cls-8{fill:#744cac;}</style><mask id="mask" x="0" y="0" width="162.27" height="172.34" maskUnits="userSpaceOnUse"><path class="cls-1" d="M86.08,6.78H46.64a8.59,8.59,0,0,0-8.59,8.58V44.8h0V75.71h0v1a5.44,5.44,0,0,1-5.44,5.43h-24A8.58,8.58,0,0,0,0,90.72v60.59a6.18,6.18,0,0,0,6.18,6.18H86.91a75.45,75.45,0,0,0,75.36-75.8C162,40.11,127.66,6.78,86.08,6.78Zm.83,112.68H41.27A3.25,3.25,0,0,1,38,116.21V89.07h0V87.56a5.43,5.43,0,0,1,5.24-5.43H66.81a9.33,9.33,0,0,0,9.33-9.33V48.05a3.26,3.26,0,0,1,3.25-3.25h7c20.48,0,37.57,16.27,37.88,36.75A37.36,37.36,0,0,1,86.91,119.46Z"/></mask></defs><title>Icon</title><g class="cls-2"><rect class="cls-3" width="27.04" height="172.34"/><rect class="cls-4" x="27.04" width="27.04" height="172.34"/><rect class="cls-5" x="54.09" width="27.04" height="172.34"/><rect class="cls-6" x="81.13" width="27.04" height="172.34"/><rect class="cls-7" x="108.18" width="27.04" height="172.34"/><rect class="cls-8" x="135.22" width="27.04" height="172.34"/></g></svg>